{
  "accessors": [
    {
      "bufferView": 2,
      "componentType": 5126,
      "count": 22076,
      "max": [
        0.5561339855194092,
        0.3897550106048584,
        0.9506629705429077
      ],
      "min": [
        -0.5356420278549194,
        -0.38768601417541504,
        -0.9501060247421265
      ],
      "type": "VEC3"
    },
    {
      "bufferView": 2,
      "byteOffset": 264912,
      "componentType": 5126,
      "count": 22076,
      "max": [
        1.0,
        0.9999983310699463,
        1.0
      ],
      "min": [
        -1.0,
        -1.0,
        -1.0
      ],
      "type": "VEC3"
    },
    {
      "bufferView": 3,
      "componentType": 5126,
      "count": 22076,
      "max": [
        0.9999873042106628,
        1.0,
        0.99998939037323,
        1.0
      ],
      "min": [
        -1.0,
        -0.999998927116394,
        -0.9999977350234985,
        -1.0
      ],
      "type": "VEC4"
    },
    {
      "bufferView": 1,
      "componentType": 5126,
      "count": 22076,
      "max": [
        0.9907529950141907,
        0.9992420077323914
      ],
      "min": [
        0.0007580000092275441,
        0.0007580000092275441
      ],
      "type": "VEC2"
    },
    {
      "bufferView": 0,
      "componentType": 5125,
      "count": 106350,
      "type": "SCALAR"
    }
  ],
  "asset": {
    "extras": {
      "author": "Chenzoss (https://sketchfab.com/Chenzoss)",
      "license": "CC-BY-4.0 (http://creativecommons.org/licenses/by/4.0/)",
      "source": "https://sketchfab.com/3d-models/astronauta-t-pose-4e1c68fff3f74aa9826064e4ca9bb14b",
      "title": "Astronauta T pose"
    },
    "generator": "Sketchfab-16.59.0",
    "version": "2.0"
  },
  "bufferViews": [
    {
      "buffer": 0,
      "byteLength": 425400,
      "name": "floatBufferViews",
      "target": 34963
    },
    {
      "buffer": 0,
      "byteLength": 176608,
      "byteOffset": 425400,
      "byteStride": 8,
      "name": "floatBufferViews",
      "target": 34962
    },
    {
      "buffer": 0,
      "byteLength": 529824,
      "byteOffset": 602008,
      "byteStride": 12,
      "name": "floatBufferViews",
      "target": 34962
    },
    {
      "buffer": 0,
      "byteLength": 353216,
      "byteOffset": 1131832,
      "byteStride": 16,
      "name": "floatBufferViews",
      "target": 34962
    }
  ],
  "buffers": [
    {
      "byteLength": 1485048,
      "uri": "astronaut.bin"
    }
  ],
  "images": [
    {
      "uri": "astronaut_baseColor.png"
    },
    {
      "uri": "astronaut_metallicRoughness.png"
    },
    {
      "uri": "astronaut_normal.png"
    }
  ],
  "materials": [
    {
      "doubleSided": true,
      "name": "material_0",
      "normalTexture": {
        "index": 2
      },
      "pbrMetallicRoughness": {
        "baseColorTexture": {
          "index": 0
        },
        "metallicRoughnessTexture": {
          "index": 1
        }
      }
    }
  ],
  "meshes": [
    {
      "name": "Object_0",
      "primitives": [
        {
          "attributes": {
            "NORMAL": 1,
            "POSITION": 0,
            "TANGENT": 2,
            "TEXCOORD_0": 3
          },
          "indices": 4,
          "material": 0,
          "mode": 4
        }
      ]
    }
  ],
  "nodes": [
    {
      "children": [
        1
      ],
      "matrix": [
        1.0,
        0.0,
        0.0,
        0.0,
        0.0,
        2.220446049250313e-16,
        -1.0,
        0.0,
        0.0,
        1.0,
        2.220446049250313e-16,
        0.0,
        0.0,
        0.0,
        0.0,
        1.0
      ],
      "name": "Sketchfab_model"
    },
    {
      "children": [
        2
      ],
      "name": "base.obj.cleaner.materialmerger.gles"
    },
    {
      "mesh": 0,
      "name": "Object_2"
    }
  ],
  "samplers": [
    {
      "magFilter": 9729,
      "minFilter": 9987,
      "wrapS": 10497,
      "wrapT": 10497
    }
  ],
  "scene": 0,
  "scenes": [
    {
      "name": "Sketchfab_Scene",
      "nodes": [
        0
      ]
    }
  ],
  "textures": [
    {
      "sampler": 0,
      "source": 0
    },
    {
      "sampler": 0,
      "source": 1
    },
    {
      "sampler": 0,
      "source": 2
    }
  ]
}
