{
  "accessors": [
    {
      "bufferView": 2,
      "componentType": 5126,
      "count": 19179,
      "max": [
        1.7506763935089111,
        5.753562927246094,
        3.2423129081726074
      ],
      "min": [
        -1.8469102382659912,
        -0.0037317276000976563,
        -2.6086273193359375
      ],
      "type": "VEC3"
    },
    {
      "bufferView": 2,
      "byteOffset": 230148,
      "componentType": 5126,
      "count": 19179,
      "max": [
        0.9998689293861389,
        0.9998593330383301,
        0.9999808073043823
      ],
      "min": [
        -0.9999781250953674,
        -0.9999974370002747,
        -0.9997773170471191
      ],
      "type": "VEC3"
    },
    {
      "bufferView": 1,
      "componentType": 5126,
      "count": 19179,
      "max": [
        0.9917015433311462,
        0.9912643432617188
      ],
      "min": [
        0.006567771080881357,
        0.006425261497497559
      ],
      "type": "VEC2"
    },
    {
      "bufferView": 1,
      "byteOffset": 153432,
      "componentType": 5126,
      "count": 19179,
      "max": [
        0.9917015433311462,
        0.9912643432617188
      ],
      "min": [
        0.006567771080881357,
        0.006425261497497559
      ],
      "type": "VEC2"
    },
    {
      "bufferView": 1,
      "byteOffset": 306864,
      "componentType": 5126,
      "count": 19179,
      "max": [
        0.9917015433311462,
        0.9912643432617188
      ],
      "min": [
        0.006567771080881357,
        0.006425261497497559
      ],
      "type": "VEC2"
    },
    {
      "bufferView": 0,
      "componentType": 5125,
      "count": 105744,
      "type": "SCALAR"
    }
  ],
  "asset": {
    "extras": {
      "author": "TdoubleU8 (https://sketchfab.com/TdoubleU8)",
      "license": "CC-BY-4.0 (http://creativecommons.org/licenses/by/4.0/)",
      "source": "https://sketchfab.com/3d-models/realsitic-monkey-50e4b1da03494429b1265fc095f2c530",
      "title": "Realsitic Monkey"
    },
    "generator": "Sketchfab-12.68.0",
    "version": "2.0"
  },
  "bufferViews": [
    {
      "buffer": 0,
      "byteLength": 422976,
      "name": "floatBufferViews",
      "target": 34963
    },
    {
      "buffer": 0,
      "byteLength": 460296,
      "byteOffset": 422976,
      "byteStride": 8,
      "name": "floatBufferViews",
      "target": 34962
    },
    {
      "buffer": 0,
      "byteLength": 460296,
      "byteOffset": 883272,
      "byteStride": 12,
      "name": "floatBufferViews",
      "target": 34962
    }
  ],
  "buffers": [
    {
      "byteLength": 1343568,
      "uri": "monkey.bin"
    }
  ],
  "extensionsRequired": [
    "KHR_materials_pbrSpecularGlossiness"
  ],
  "extensionsUsed": [
    "KHR_materials_pbrSpecularGlossiness"
  ],
  "images": [
    {
      "uri": "monkey_diffuse.png"
    },
    {
      "uri": "monkey_specular.png"
    }
  ],
  "materials": [
    {
      "doubleSided": true,
      "extensions": {
        "KHR_materials_pbrSpecularGlossiness": {
          "diffuseFactor": [
            1.0,
            1.0,
            1.0,
            1.0
          ],
          "diffuseTexture": {
            "index": 0
          },
          "glossinessFactor": 1.0,
          "specularFactor": [
            1.0,
            1.0,
            1.0
          ],
          "specularGlossinessTexture": {
            "index": 1
          }
        }
      },
      "name": "material"
    }
  ],
  "meshes": [
    {
      "name": "Object_0",
      "primitives": [
        {
          "attributes": {
            "NORMAL": 1,
            "POSITION": 0,
            "TEXCOORD_0": 2,
            "TEXCOORD_1": 3,
            "TEXCOORD_2": 4
          },
          "indices": 5,
          "material": 0,
          "mode": 4
        }
      ]
    }
  ],
  "nodes": [
    {
      "children": [
        1
      ],
      "matrix": [
        1.0,
        0.0,
        0.0,
        0.0,
        0.0,
        2.220446049250313e-16,
        -1.0,
        0.0,
        0.0,
        1.0,
        2.220446049250313e-16,
        0.0,
        0.0,
        0.0,
        0.0,
        1.0
      ],
      "name": "Sketchfab_model"
    },
    {
      "children": [
        2
      ],
      "name": "root"
    },
    {
      "children": [
        3
      ],
      "matrix": [
        1.0,
        0.0,
        0.0,
        0.0,
        0.0,
        2.220446049250313e-16,
        1.0,
        0.0,
        0.0,
        -1.0,
        2.220446049250313e-16,
        0.0,
        0.0,
        0.0,
        0.0,
        1.0
      ],
      "name": "GLTF_SceneRootNode"
    },
    {
      "children": [
        4
      ],
      "name": "root_0"
    },
    {
      "children": [
        5
      ],
      "matrix": [
        0.09071912616491318,
        0.0,
        0.0,
        0.0,
        0.0,
        0.08893066644668579,
        0.0,
        0.0,
        0.0,
        0.0,
        0.08893066644668579,
        0.0,
        0.0075827352702617645,
        -0.18066814541816711,
        0.23198655247688293,
        1.0
      ],
      "name": "node_id79_1"
    },
    {
      "mesh": 0,
      "name": "Object_5"
    }
  ],
  "samplers": [
    {
      "magFilter": 9729,
      "minFilter": 9987,
      "wrapS": 10497,
      "wrapT": 10497
    }
  ],
  "scene": 0,
  "scenes": [
    {
      "name": "Sketchfab_Scene",
      "nodes": [
        0
      ]
    }
  ],
  "textures": [
    {
      "sampler": 0,
      "source": 0
    },
    {
      "sampler": 0,
      "source": 1
    }
  ]
}
