{
  "accessors": [
    {
      "bufferView": 2,
      "componentType": 5126,
      "count": 12234,
      "max": [
        4.262603282928467,
        1.139176845550537,
        13.12938117980957
      ],
      "min": [
        -4.263453483581543,
        -1.4432512521743774,
        -0.021174408495426178
      ],
      "type": "VEC3"
    },
    {
      "bufferView": 2,
      "byteOffset": 146808,
      "componentType": 5126,
      "count": 12234,
      "max": [
        0.9999232292175293,
        0.9999480247497559,
        1.0
      ],
      "min": [
        -0.999710738658905,
        -0.9999480247497559,
        -1.0
      ],
      "type": "VEC3"
    },
    {
      "bufferView": 1,
      "componentType": 5126,
      "count": 12234,
      "max": [
        0.9994013905525208,
        0.9906954765319824
      ],
      "min": [
        0.0005986181786283851,
        0.0005986181786283851
      ],
      "type": "VEC2"
    },
    {
      "bufferView": 0,
      "componentType": 5125,
      "count": 18696,
      "type": "SCALAR"
    }
  ],
  "asset": {
    "extras": {
      "author": "Gn0m0 (https://sketchfab.com/Gn0m0)",
      "license": "CC-BY-4.0 (http://creativecommons.org/licenses/by/4.0/)",
      "source": "https://sketchfab.com/3d-models/juan-carlos-bodoque-91caf07bfb554beeb282fde056383679",
      "title": "Juan carlos bodoque"
    },
    "generator": "Sketchfab-12.68.0",
    "version": "2.0"
  },
  "bufferViews": [
    {
      "buffer": 0,
      "byteLength": 74784,
      "name": "floatBufferViews",
      "target": 34963
    },
    {
      "buffer": 0,
      "byteLength": 97872,
      "byteOffset": 74784,
      "byteStride": 8,
      "name": "floatBufferViews",
      "target": 34962
    },
    {
      "buffer": 0,
      "byteLength": 293616,
      "byteOffset": 172656,
      "byteStride": 12,
      "name": "floatBufferViews",
      "target": 34962
    }
  ],
  "buffers": [
    {
      "byteLength": 466272,
      "uri": "scene.bin"
    }
  ],
  "images": [
    {
      "uri": "textures/Textura_baseColor.png"
    }
  ],
  "materials": [
    {
      "doubleSided": true,
      "name": "Textura",
      "pbrMetallicRoughness": {
        "baseColorTexture": {
          "index": 0
        },
        "metallicFactor": 0.0,
        "roughnessFactor": 0.8211145618000169
      }
    }
  ],
  "meshes": [
    {
      "name": "Cylinder_Textura_0",
      "primitives": [
        {
          "attributes": {
            "NORMAL": 1,
            "POSITION": 0,
            "TEXCOORD_0": 2
          },
          "indices": 3,
          "material": 0,
          "mode": 4
        }
      ]
    }
  ],
  "nodes": [
    {
      "children": [
        1
      ],
      "matrix": [
        1.0,
        0.0,
        0.0,
        0.0,
        0.0,
        2.220446049250313e-16,
        -1.0,
        0.0,
        0.0,
        1.0,
        2.220446049250313e-16,
        0.0,
        0.0,
        0.0,
        0.0,
        1.0
      ],
      "name": "Sketchfab_model"
    },
    {
      "children": [
        2
      ],
      "matrix": [
        1.0,
        0.0,
        0.0,
        0.0,
        0.0,
        0.0,
        1.0,
        0.0,
        0.0,
        -1.0,
        0.0,
        0.0,
        0.0,
        0.0,
        0.0,
        1.0
      ],
      "name": "25a3471eb7cf40eaaa5c611a447c257e.fbx"
    },
    {
      "children": [
        3
      ],
      "name": "RootNode"
    },
    {
      "children": [
        4
      ],
      "matrix": [
        100.0,
        0.0,
        0.0,
        0.0,
        0.0,
        -1.629206793918314e-05,
        -99.99999999999868,
        0.0,
        0.0,
        99.99999999999868,
        -1.629206793918314e-05,
        0.0,
        0.0,
        51.19520568847656,
        0.0,
        1.0
      ],
      "name": "Cylinder"
    },
    {
      "mesh": 0,
      "name": "Cylinder_Textura_0"
    }
  ],
  "samplers": [
    {
      "magFilter": 9729,
      "minFilter": 9987,
      "wrapS": 10497,
      "wrapT": 10497
    }
  ],
  "scene": 0,
  "scenes": [
    {
      "name": "Sketchfab_Scene",
      "nodes": [
        0
      ]
    }
  ],
  "textures": [
    {
      "sampler": 0,
      "source": 0
    }
  ]
}
